<svg width="16" height="16" viewBox="0 0 16 16" fill="none" xmlns="http://www.w3.org/2000/svg">
<path d="M3.47808 12.1592L3.47821 12.1594C4.60165 13.3802 6.2113 14.1439 8.00016 14.1439C11.3935 14.1439 14.1444 11.393 14.1444 7.99967C14.1444 6.21082 13.3804 4.60094 12.1597 3.47807L12.1593 3.47771C11.839 3.18255 11.4874 2.92149 11.11 2.69955L11.1099 2.69948C10.1984 2.16315 9.13609 1.85546 8.00016 1.85546C4.6068 1.85546 1.85595 4.60631 1.85595 7.99967C1.85595 9.13521 2.16358 10.1975 2.69964 11.1093L3.47808 12.1592ZM3.47808 12.1592C3.18323 11.8391 2.9221 11.4872 2.69978 11.1096L3.47808 12.1592Z" fill="#F0CD00" stroke="#FF821E" stroke-width="1.0449"/>
<path d="M14.6671 7.99993C14.6671 11.5988 11.8157 14.5316 8.24858 14.662C4.68151 14.5316 1.83008 11.5988 1.83008 7.99993C1.83008 4.40102 4.68151 1.46823 8.24858 1.33789C11.8157 1.46823 14.6671 4.40102 14.6671 7.99993Z" fill="#FFDE50"/>
<path d="M12.5135 3.09338L3.09387 12.513C2.77387 12.1655 2.4906 11.7837 2.24951 11.3742L11.375 2.24902C11.7845 2.48984 12.166 2.7731 12.5135 3.09338Z" fill="#FFEA94"/>
<path d="M14.2072 5.56219L5.56289 14.2065C4.95092 13.966 4.38303 13.6376 3.875 13.2367L13.2377 3.87402C13.6385 4.38205 13.967 4.94994 14.2072 5.56219Z" fill="#FFEA94"/>
<path d="M13.1806 7.99974C13.1806 10.8607 10.8612 13.1802 8.00023 13.1802C7.00377 13.1802 6.07316 12.8988 5.28323 12.4112C4.93901 12.1989 4.62173 11.9472 4.3371 11.6626C4.12785 11.4536 3.93629 11.2264 3.76513 10.984C3.52948 10.6501 3.33221 10.2871 3.1801 9.90151C2.95479 9.33145 2.82799 8.71158 2.82037 8.06342C2.81982 8.04219 2.81982 8.02097 2.81982 7.99974C2.81982 5.13879 5.13901 2.81934 8.00023 2.81934C8.02146 2.81934 8.04295 2.81934 8.06418 2.81988C8.71234 2.8275 9.33193 2.95457 9.902 3.17961C10.2876 3.33199 10.6506 3.529 10.9845 3.76464C11.2269 3.93607 11.4538 4.12736 11.6631 4.33661C11.9477 4.62097 12.1994 4.93852 12.4117 5.28274C12.8993 6.07267 13.1806 7.00328 13.1806 7.99974Z" fill="#FAA300"/>
<path d="M11.6631 4.33661L4.3371 11.6626C4.12785 11.4536 3.93629 11.2264 3.76513 10.984C3.52948 10.6501 3.33221 10.2871 3.1801 9.90151C2.95479 9.33144 2.82799 8.71158 2.82037 8.06342C2.81982 8.04219 2.81982 8.02097 2.81982 7.99974C2.81982 5.13879 5.13901 2.81934 8.00023 2.81934C8.02146 2.81934 8.04295 2.81934 8.06418 2.81988C8.71234 2.8275 9.33193 2.95457 9.902 3.17961C10.2876 3.33199 10.6506 3.529 10.9844 3.76464C11.2269 3.93607 11.4538 4.12736 11.6631 4.33661Z" fill="#FFBD00"/>
<path d="M13.1804 7.99974C13.1804 10.8607 10.861 13.1802 8.00004 13.1802C7.9018 13.1802 7.80439 13.1774 7.70752 13.172C10.4324 13.0204 12.5951 10.7625 12.5951 7.99974C12.5951 5.23702 10.4324 2.97906 7.70752 2.8275C7.80439 2.82206 7.9018 2.81934 8.00004 2.81934C10.861 2.81934 13.1804 5.13879 13.1804 7.99974Z" fill="#F68E00"/>
<path d="M5.84491 11.3337C5.70488 11.3337 5.58312 11.2819 5.47961 11.1784C5.3822 11.0749 5.3335 10.9531 5.3335 10.8131V10.6031C5.3335 10.2499 5.42786 9.93335 5.6166 9.65329L8.12802 5.94553V5.9364L8.13715 5.92727C8.13715 5.92118 8.1341 5.91813 8.12802 5.91813H5.84491C5.70488 5.91813 5.58312 5.86638 5.47961 5.76288C5.3822 5.65938 5.3335 5.53762 5.3335 5.39759V5.18754C5.3335 5.04751 5.3822 4.92574 5.47961 4.82224C5.58312 4.71874 5.70488 4.66699 5.84491 4.66699H9.44309C9.58312 4.66699 9.70184 4.71874 9.79925 4.82224C9.90275 4.92574 9.9545 5.04751 9.9545 5.18754V5.39759C9.9545 5.75071 9.86013 6.0673 9.6714 6.34736L7.15998 10.0551V10.0643L7.15085 10.0734C7.15085 10.0795 7.15389 10.0825 7.15998 10.0825H9.44309C9.58312 10.0825 9.70184 10.1343 9.79925 10.2378C9.90275 10.3413 9.9545 10.463 9.9545 10.6031V10.8131C9.9545 10.9531 9.90275 11.0749 9.79925 11.1784C9.70184 11.2819 9.58312 11.3337 9.44309 11.3337H5.84491Z" fill="#F68E00"/>
<path d="M6.51142 11.3337C6.37139 11.3337 6.24962 11.2819 6.14612 11.1784C6.04871 11.0749 6 10.9531 6 10.8131V10.6031C6 10.2499 6.09437 9.93335 6.28311 9.65329L8.79452 5.94553V5.9364L8.80365 5.92727C8.80365 5.92118 8.80061 5.91813 8.79452 5.91813H6.51142C6.37139 5.91813 6.24962 5.86638 6.14612 5.76288C6.04871 5.65938 6 5.53762 6 5.39759V5.18754C6 5.04751 6.04871 4.92574 6.14612 4.82224C6.24962 4.71874 6.37139 4.66699 6.51142 4.66699H10.1096C10.2496 4.66699 10.3683 4.71874 10.4658 4.82224C10.5693 4.92574 10.621 5.04751 10.621 5.18754V5.39759C10.621 5.75071 10.5266 6.0673 10.3379 6.34736L7.82648 10.0551V10.0643L7.81735 10.0734C7.81735 10.0795 7.8204 10.0825 7.82648 10.0825H10.1096C10.2496 10.0825 10.3683 10.1343 10.4658 10.2378C10.5693 10.3413 10.621 10.463 10.621 10.6031V10.8131C10.621 10.9531 10.5693 11.0749 10.4658 11.1784C10.3683 11.2819 10.2496 11.3337 10.1096 11.3337H6.51142Z" fill="#FFEA94"/>
</svg>
