<svg width="40" height="40" viewBox="0 0 40 40" fill="none" xmlns="http://www.w3.org/2000/svg">
<rect x="5" y="15" width="30" height="10" rx="2" fill="#CACACA"/>
<path d="M5 5H35V7.66667C35 9.55228 35 10.4951 34.4142 11.0809C33.8284 11.6667 32.8856 11.6667 31 11.6667H9C7.11438 11.6667 6.17157 11.6667 5.58579 11.0809C5 10.4951 5 9.55228 5 7.66667V5Z" fill="#E2E2E2"/>
<path d="M35 35L5 35L5 32.3333C5 30.4477 5 29.5049 5.58579 28.9191C6.17157 28.3333 7.11438 28.3333 9 28.3333L31 28.3333C32.8856 28.3333 33.8284 28.3333 34.4142 28.9191C35 29.5049 35 30.4477 35 32.3333L35 35Z" fill="#E2E2E2"/>
</svg>
