<svg width="40" height="40" viewBox="0 0 40 40" fill="none" xmlns="http://www.w3.org/2000/svg">
<path d="M20.642 5.59225C20.6424 5.59251 20.6427 5.59271 20.643 5.59297C20.5946 5.55072 20.5963 5.55215 20.642 5.59225ZM36.3328 19.33C36.136 19.1578 21.4506 6.30052 20.642 5.59232C20.274 5.27109 19.7251 5.27129 19.3574 5.59303C14.6104 9.74668 8.31489 15.2636 3.66756 19.33C3.26131 19.6857 3.21932 20.3027 3.57602 20.7081C3.92961 21.1142 4.54816 21.1555 4.95311 20.8006L7.30487 18.7344V33.672C7.30487 34.2113 7.74211 34.6486 8.28143 34.6486H15.1174C16.1961 34.6486 17.0705 33.7742 17.0705 32.6954V24.8829H22.9299V32.6954C22.9299 33.7742 23.8043 34.6486 24.883 34.6486H31.7189C32.2583 34.6486 32.6955 34.2113 32.6955 33.672V18.7344L35.0473 20.8005C35.4522 21.1553 36.0707 21.1142 36.4243 20.708C36.781 20.3027 36.739 19.6857 36.3328 19.33V19.33Z" fill="#E2E2E2"/>
<path d="M20.0005 19.0234C21.616 19.0234 22.9302 17.7092 22.9302 16.0938C22.9302 14.4783 21.616 13.1641 20.0005 13.1641C18.385 13.1641 17.0708 14.4783 17.0708 16.0938C17.0708 17.7092 18.385 19.0234 20.0005 19.0234ZM23.9067 22.9297H16.0942C15.5549 22.9297 15.1177 23.3669 15.1177 23.9063V34.6484H24.8833V23.9063C24.8833 23.3669 24.4461 22.9297 23.9067 22.9297Z" fill="#CACACA"/>
</svg>
