<svg width="34" height="30" viewBox="0 0 34 30" fill="none" xmlns="http://www.w3.org/2000/svg">
<path d="M0 9.333C0 6.50458 0 5.09037 0.87868 4.21169C1.75736 3.33301 3.17157 3.33301 6 3.33301H20.6667C23.4951 3.33301 24.9093 3.33301 25.788 4.21169C26.6667 5.09037 26.6667 6.50458 26.6667 9.33301V23.9997C26.6667 26.8281 26.6667 28.2423 25.788 29.121C24.9093 29.9997 23.4951 29.9997 20.6667 29.9997H6C3.17157 29.9997 1.75736 29.9997 0.87868 29.121C0 28.2423 0 26.8281 0 23.9997V9.333Z" fill="#FACCD3"/>
<path d="M3.33301 6C3.33301 3.17157 3.33301 1.75736 4.21169 0.87868C5.09037 0 6.50458 0 9.33301 0H23.9997C26.8281 0 28.2423 0 29.121 0.87868C29.9997 1.75736 29.9997 3.17157 29.9997 6V20.6667C29.9997 23.4951 29.9997 24.9093 29.121 25.788C28.2423 26.6667 26.8281 26.6667 23.9997 26.6667H9.333C6.50458 26.6667 5.09037 26.6667 4.21169 25.788C3.33301 24.9093 3.33301 23.4951 3.33301 20.6667V6Z" fill="#B83E50"/>
<path d="M6.6665 6C6.6665 3.17157 6.6665 1.75736 7.54518 0.87868C8.42386 0 9.83808 0 12.6665 0H27.3332C30.1616 0 31.5758 0 32.4545 0.87868C33.3332 1.75736 33.3332 3.17157 33.3332 6V20.6667C33.3332 23.4951 33.3332 24.9093 32.4545 25.788C31.5758 26.6667 30.1616 26.6667 27.3332 26.6667H12.6665C9.83808 26.6667 8.42386 26.6667 7.54518 25.788C6.6665 24.9093 6.6665 23.4951 6.6665 20.6667V6Z" fill="#EB415A"/>
<path fill-rule="evenodd" clip-rule="evenodd" d="M17.8185 18.2416C17.5777 18.3635 17.2913 18.3635 17.0505 18.2416C16.8194 18.1287 16.6715 17.8999 16.6665 17.6475V9.01856C16.6715 8.76615 16.8194 8.5373 17.0505 8.42445C17.2913 8.30253 17.5777 8.30253 17.8185 8.42445L26.2783 12.7382C26.5151 12.8464 26.6665 13.0788 26.6665 13.3343C26.6665 13.5898 26.5151 13.8222 26.2783 13.9304L17.8185 18.2416Z" fill="white"/>
</svg>
