<svg width="34" height="30" viewBox="0 0 34 30" fill="none" xmlns="http://www.w3.org/2000/svg">
<path d="M0.333496 9.333C0.333496 6.50458 0.333496 5.09037 1.21218 4.21169C2.09086 3.33301 3.50507 3.33301 6.3335 3.33301H21.0002C23.8286 3.33301 25.2428 3.33301 26.1215 4.21169C27.0002 5.09037 27.0002 6.50458 27.0002 9.33301V23.9997C27.0002 26.8281 27.0002 28.2423 26.1215 29.121C25.2428 29.9997 23.8286 29.9997 21.0002 29.9997H6.33349C3.50507 29.9997 2.09086 29.9997 1.21218 29.121C0.333496 28.2423 0.333496 26.8281 0.333496 23.9997V9.333Z" fill="#F5F5F5"/>
<path d="M3.6665 6C3.6665 3.17157 3.6665 1.75736 4.54518 0.87868C5.42386 0 6.83808 0 9.6665 0H24.3332C27.1616 0 28.5758 0 29.4545 0.87868C30.3332 1.75736 30.3332 3.17157 30.3332 6V20.6667C30.3332 23.4951 30.3332 24.9093 29.4545 25.788C28.5758 26.6667 27.1616 26.6667 24.3332 26.6667H9.6665C6.83808 26.6667 5.42386 26.6667 4.54518 25.788C3.6665 24.9093 3.6665 23.4951 3.6665 20.6667V6Z" fill="#CACACA"/>
<path d="M7 6C7 3.17157 7 1.75736 7.87868 0.87868C8.75736 0 10.1716 0 13 0H27.6667C30.4951 0 31.9093 0 32.788 0.87868C33.6667 1.75736 33.6667 3.17157 33.6667 6V20.6667C33.6667 23.4951 33.6667 24.9093 32.788 25.788C31.9093 26.6667 30.4951 26.6667 27.6667 26.6667H13C10.1716 26.6667 8.75736 26.6667 7.87868 25.788C7 24.9093 7 23.4951 7 20.6667V6Z" fill="#E2E2E2"/>
<path fill-rule="evenodd" clip-rule="evenodd" d="M18.152 18.2416C17.9112 18.3635 17.6248 18.3635 17.384 18.2416C17.1529 18.1287 17.005 17.8999 17 17.6475V9.01856C17.005 8.76615 17.1529 8.5373 17.384 8.42445C17.6248 8.30253 17.9112 8.30253 18.152 8.42445L26.6118 12.7382C26.8486 12.8464 27 13.0788 27 13.3343C27 13.5898 26.8486 13.8222 26.6118 13.9304L18.152 18.2416Z" fill="white"/>
</svg>
